<svg xmlns="http://www.w3.org/2000/svg" width="396" height="258" fill="none" viewBox="0 0 396 258">
  <path fill="#A6DAFF" d="M110.947.126h155.762c32.064-1.838 102.312 15.663 126.796 100.375 5.101 22.612 5.794 77.763-32.245 117.471-18.582 18.2-69.192 50.96-122.971 36.4-39.35-7.501-64.855-33.275-72.689-45.224H9.291C6.194 208.78 0 205.729 0 196.463c0-9.265 6.194-12.317 9.291-12.684h138.82c-5.247-9.266-8.38-21.142-9.291-25.921H75.968c-3.643 0-10.93-1.765-10.93-8.824 0-7.06 7.287-9.192 10.93-9.376h60.119c-.874-17.207 1.458-33.274 2.733-39.157H22.955c-2.915-.368-8.745-2.978-8.745-10.479 0-7.5 5.83-10.846 8.744-11.582h122.971c8.744-18.53 20.404-32.722 25.141-37.502h-28.967c-2.915.368-8.744-.22-8.744-5.515s5.829-6.618 8.744-6.618h41.537c0-.883 9.109-6.618 13.663-9.376H110.947c-4.919 0-14.648-1.875-14.21-9.375.437-7.501 9.655-9.744 14.21-9.928z"/>
  <path fill="#A6DAFF" d="M17.49 44.798h94.55c2.55 0 7.542 1.434 7.105 7.17-.438 5.736-4.919 7.17-7.105 7.17H17.49c-2.734-.552-8.199-2.758-8.199-7.17s5.465-6.618 8.198-7.17zM10.693 141.186h34.431c3.28 0 6.012 2.758 6.012 8.824 0 4.854-4.008 6.802-6.012 7.17H10.693c-3.28.551-9.838-.11-9.838-7.17 0-7.059 6.558-8.824 9.838-8.824zM43.2 6.618h27.695c2.637 0 4.835 2.638 4.835 8.44 0 4.643-3.223 6.507-4.835 6.858H43.2c-2.638.528-7.913-.105-7.913-6.857 0-6.753 5.275-8.44 7.913-8.44zM62.875 220.603H90.57c2.638 0 4.836 2.638 4.836 8.441 0 4.642-3.224 6.506-4.836 6.858H62.875c-2.638.527-7.913-.106-7.913-6.858 0-6.753 5.275-8.441 7.913-8.441zM24.998 113.611h71.109c6.772 0 12.415 2.637 12.415 8.44 0 4.642-8.277 6.506-12.415 6.858h-71.11c-6.772.527-20.316-.106-20.316-6.858s13.544-8.44 20.317-8.44z"/>
</svg>
